<?xml version="1.0" standalone="no"?>
<!DOCTYPE svg PUBLIC "-//W3C//DTD SVG 20010904//EN"
 "http://www.w3.org/TR/2001/REC-SVG-20010904/DTD/svg10.dtd">
<svg version="1.0" xmlns="http://www.w3.org/2000/svg"
 width="1080.000000pt" height="1080.000000pt" viewBox="0 0 1080.000000 1080.000000"
 preserveAspectRatio="xMidYMid meet">
<metadata>
Created by potrace 1.14, written by Peter Selinger 2001-2017
</metadata>
<g transform="translate(0.000000,1080.000000) scale(0.100000,-0.100000)"
fill="#000000" stroke="none">
<path d="M0 8103 l1 -2698 1343 -1409 c738 -776 1347 -1411 1353 -1413 5 -2
615 632 1354 1408 l1344 1412 3 -2702 2 -2701 2700 0 2700 0 0 5400 0 5400
-5400 0 -5400 0 0 -2697z"/>
<path d="M1350 998 l0 -998 1350 0 1350 0 0 998 -1 997 -52 -57 c-112 -123
-1292 -1358 -1297 -1358 -5 0 -1187 1237 -1297 1358 l-53 57 0 -997z"/>
</g>
</svg>
