<?xml version="1.0" encoding="UTF-8" standalone="no"?>
<!DOCTYPE svg PUBLIC "-//W3C//DTD SVG 1.1//EN" "http://www.w3.org/Graphics/SVG/1.1/DTD/svg11.dtd">
<svg width="100%" height="100%" viewBox="0 0 1080 1080" version="1.1" xmlns="http://www.w3.org/2000/svg" xmlns:xlink="http://www.w3.org/1999/xlink" xml:space="preserve" xmlns:serif="http://www.serif.com/" style="fill-rule:evenodd;clip-rule:evenodd;stroke-linejoin:round;stroke-miterlimit:2;">
    <g transform="matrix(1.21153,0,0,1.21153,-114.228,-113.23)">
        <path d="M851.299,666.637L868.633,649.304L868.633,736.428C868.633,771.022 849.087,802.648 818.145,818.119L583.529,935.427C556.127,949.128 523.873,949.128 496.471,935.427L261.855,818.119C230.913,802.648 211.367,771.022 211.367,736.428L211.367,642.515C211.367,624.819 221.629,607.105 246.032,594.904L460.694,487.572C467.516,484.161 475.175,481.333 483.468,479.119L483.468,317.977C454.419,299.333 435.162,266.743 435.162,229.693C435.162,171.831 482.138,124.855 540,124.855C597.862,124.855 644.838,171.831 644.838,229.693C644.838,266.743 625.58,299.333 596.532,317.977L596.532,481.462C610.92,485.237 624.723,490.281 637.194,496.517L816.08,585.959C851.735,603.787 868.212,628.237 868.624,648.962L851.299,666.634L851.299,666.637Z" style="fill:url(#_Linear1);"/>
    </g>
    <g transform="matrix(1.21153,0,0,1.21153,-114.228,-113.23)">
        <path d="M225.701,642.515C225.701,629.33 234.26,616.815 252.442,607.724L467.104,500.392C475.941,495.974 486.368,492.703 497.801,490.568C497.801,490.568 497.801,309.763 497.801,309.763C469.083,294.586 449.495,264.408 449.495,229.693C449.495,179.742 490.049,139.188 540,139.188C589.951,139.188 630.505,179.742 630.505,229.693C630.505,264.408 610.917,294.586 582.199,309.763C582.199,309.763 582.199,492.791 582.199,492.791C599.436,496.45 616.102,501.995 630.784,509.337L809.67,598.779C838.949,613.419 853.955,632.228 854.293,649.247C854.297,649.449 854.299,649.652 854.299,649.854L854.299,736.428C854.299,765.593 837.821,792.256 811.735,805.299L577.119,922.607C553.752,934.29 526.248,934.29 502.881,922.607L268.265,805.299C242.179,792.256 225.701,765.593 225.701,736.428L225.701,642.515ZM511.801,550.76C511.892,550.883 512.36,551.512 512.709,551.861C512.792,551.944 512.876,552.026 512.964,552.107C513.889,552.968 515.064,553.757 516.451,554.503C516.693,554.633 516.942,554.762 517.196,554.889C519.817,556.199 522.79,557.209 525.96,557.945C530.388,558.973 535.198,559.465 540,559.465C544.802,559.465 549.612,558.973 554.04,557.945C556.773,557.311 559.359,556.472 561.7,555.414C562.074,555.245 562.442,555.07 562.804,554.889C564.519,554.031 565.948,553.12 567.036,552.107C567.124,552.026 567.208,551.944 567.291,551.861C567.667,551.485 568.034,551.16 568.199,550.777C568.199,546.224 568.199,315.71 568.199,315.71C559.323,318.622 549.844,320.197 540,320.197C530.156,320.197 520.677,318.622 511.801,315.71L511.801,550.76ZM840.299,676.51C836.756,679.434 832.516,682.166 827.558,684.644L612.896,791.976C572.748,812.05 499.401,808.124 449.216,783.031L270.33,693.589C257.268,687.057 247.034,679.725 239.701,672.117L239.701,736.428C239.701,760.291 253.183,782.105 274.526,792.777L509.142,910.085C528.568,919.797 551.432,919.797 570.858,910.085L805.474,792.777C826.817,782.105 840.299,760.291 840.299,736.428L840.299,676.51ZM582.199,531.73L582.199,550.866C582.199,552.205 581.991,553.545 581.569,554.871C581.346,555.573 581.063,556.272 580.718,556.964C579.662,559.085 578.017,561.161 575.745,563.091C574.935,563.779 574.044,564.45 573.071,565.1C571.864,565.905 570.529,566.679 569.065,567.411C561.042,571.422 550.525,573.465 540,573.465C529.475,573.465 518.958,571.422 510.935,567.411C509.471,566.679 508.136,565.905 506.929,565.1C505.397,564.077 504.068,563 502.938,561.888C501.335,560.31 500.123,558.652 499.282,556.964C498.678,555.752 498.263,554.52 498.029,553.282C497.877,552.478 497.801,551.672 497.801,550.866L497.801,531.388L496.631,531.973L496.257,532.053C483.645,534.744 471.83,538.652 461.547,543.794C451.536,548.799 443.943,554.397 439.089,560.438C435.199,565.281 433.116,570.378 433.116,575.642C433.116,578.855 433.892,582.011 435.386,585.084C435.442,585.199 435.498,585.313 435.556,585.427C436.55,587.399 437.838,589.334 439.402,591.23C439.504,591.353 439.607,591.476 439.711,591.599C444.584,597.353 451.956,602.694 461.547,607.489C504.846,629.139 575.154,629.139 618.453,607.489C628.044,602.694 635.416,597.353 640.289,591.599C640.393,591.476 640.496,591.353 640.598,591.23C642.162,589.335 643.45,587.399 644.444,585.427C644.502,585.313 644.558,585.199 644.614,585.084C646.108,582.011 646.884,578.855 646.884,575.642C646.884,570.378 644.801,565.281 640.911,560.438C636.057,554.397 628.464,548.799 618.453,543.794C607.751,538.443 595.391,534.427 582.199,531.73ZM350.781,645.909L353.605,643.321C353.356,646.177 354.885,649.021 357.31,651.961C357.314,651.964 357.317,651.968 357.32,651.972C361.092,656.534 366.993,660.827 374.752,664.707L488.197,721.429C516.496,735.578 557.819,738.421 580.459,727.101L716.592,659.034C722.397,656.132 726.201,653.011 726.41,648.835L726.411,648.829C726.414,648.774 726.416,648.718 726.418,648.663L726.451,648.663L726.419,648.631C726.42,648.524 726.42,648.417 726.418,648.296L726.418,634.845C725.301,635.522 724.113,636.177 722.853,636.807L586.72,704.874C561.019,717.724 514.062,715.265 481.936,699.202L368.491,642.479C363.939,640.203 359.922,637.777 356.451,635.256C355.474,634.547 354.54,633.83 353.649,633.106L353.649,642.336C353.649,642.661 353.634,642.985 353.606,643.308L350.781,645.909ZM737.149,651.54C737.3,651.683 737.4,651.77 737.416,651.783C737.413,651.74 737.373,651.234 737.298,650.54C737.258,650.875 737.208,651.208 737.149,651.54ZM740.335,650.344C740.252,651.252 740.108,652.153 739.901,653.045C739.62,654.253 739.225,655.446 738.714,656.617C736.262,662.236 731.071,667.448 722.853,671.556L586.72,739.623C561.019,752.474 514.062,750.014 481.936,733.951L368.491,677.229C356.615,671.29 348.377,664.299 343.862,657.252C340.632,652.21 339.248,647.093 339.649,642.209C339.649,642.209 339.649,610.769 339.649,610.774C338.894,601.446 344.381,592.445 357.147,586.063C357.147,586.063 430.095,549.589 430.093,549.59C436.016,542.953 444.402,536.714 455.286,531.272C466.116,525.857 478.503,521.685 491.731,518.77L493.28,517.996C494.724,517.274 496.233,516.599 497.801,515.972L497.801,504.752C488.764,506.645 480.491,509.351 473.365,512.914L258.703,620.246C247.243,625.976 240.478,632.886 239.761,641.119C239.24,647.096 241.994,653.24 247.051,659.354C253.457,667.101 263.414,674.478 276.591,681.067L455.477,770.509C501.834,793.688 569.549,797.997 606.635,779.454L821.297,672.123C832.757,666.393 839.522,659.483 840.239,651.25C840.76,645.272 838.006,639.128 832.949,633.014C826.543,625.267 816.586,617.89 803.409,611.301L624.523,521.859C611.685,515.439 597.209,510.482 582.199,507.054C582.199,507.054 582.199,517.177 582.199,517.177C583.009,517.445 583.815,517.72 584.614,518.001C599.215,520.932 612.893,525.361 624.714,531.272C635.598,536.714 643.984,542.953 649.905,549.589L711.509,580.39C730.791,590.031 740.418,602.576 740.418,613.762L740.418,650.285L740.335,650.344ZM646.884,604.838C641.246,610.301 633.862,615.437 624.714,620.011C577.959,643.389 502.041,643.389 455.286,620.011C446.138,615.437 438.754,610.301 433.116,604.838L433.116,611.435C433.116,623.34 443.397,634.208 461.547,643.282C504.846,664.932 575.154,664.932 618.453,643.282C636.603,634.208 646.884,623.34 646.884,611.435L646.884,604.838ZM726.419,613.852C726.444,612.544 726.091,611.229 725.471,609.9C724.813,608.485 723.86,607.07 722.682,605.649C722.531,605.466 722.375,605.283 722.216,605.1C718.428,600.742 712.694,596.635 705.248,592.912C705.248,592.912 660.483,570.53 660.484,570.531C660.751,572.232 660.884,573.937 660.884,575.642L660.884,611.435C660.884,627.398 649.051,643.636 624.714,655.804C601.335,667.494 570.671,673.377 540,673.377C509.329,673.377 478.665,667.494 455.286,655.804C430.949,643.636 419.116,627.398 419.116,611.435L419.116,575.642C419.116,573.937 419.249,572.231 419.516,570.53L363.408,598.585C359.292,600.642 356.225,602.864 354.636,605.509L354.634,605.512C353.982,606.592 353.611,607.73 353.583,608.948L353.583,608.955C353.574,609.27 353.587,609.585 353.621,609.901C353.881,612.332 355.278,614.754 357.32,617.223C358.377,618.501 359.605,619.759 360.996,620.995C362.951,622.732 365.225,624.421 367.799,626.054C369.917,627.397 372.238,628.7 374.752,629.957L488.197,686.68C516.496,700.829 557.819,703.672 580.459,692.352L716.592,624.285C717.888,623.637 719.079,622.967 720.158,622.27C723.774,619.935 726.124,617.417 726.395,614.298C726.408,614.15 726.416,614.001 726.419,613.852ZM540,153.188C497.776,153.188 463.495,187.469 463.495,229.693C463.495,271.917 497.776,306.197 540,306.197C582.224,306.197 616.505,271.917 616.505,229.693C616.505,187.469 582.224,153.188 540,153.188Z" style="fill:rgb(20,20,26);"/>
    </g>
    <defs>
        <linearGradient id="_Linear1" x1="0" y1="0" x2="1" y2="0" gradientUnits="userSpaceOnUse" gradientTransform="matrix(651.622,200.93,-253.723,822.83,255.491,327.651)"><stop offset="0" style="stop-color:rgb(254,243,199);stop-opacity:1"/><stop offset="0.37" style="stop-color:rgb(243,232,255);stop-opacity:1"/><stop offset="0.59" style="stop-color:rgb(220,243,254);stop-opacity:1"/><stop offset="0.61" style="stop-color:white;stop-opacity:1"/><stop offset="0.85" style="stop-color:rgb(186,230,253);stop-opacity:1"/><stop offset="1" style="stop-color:rgb(243,232,255);stop-opacity:1"/></linearGradient>
    </defs>
</svg>
