<?xml version="1.0" encoding="UTF-8" standalone="no"?>
<!DOCTYPE svg PUBLIC "-//W3C//DTD SVG 1.1//EN" "http://www.w3.org/Graphics/SVG/1.1/DTD/svg11.dtd">
<svg width="100%" height="100%" viewBox="0 0 1920 1080" version="1.1" xmlns="http://www.w3.org/2000/svg" xmlns:xlink="http://www.w3.org/1999/xlink" xml:space="preserve" xmlns:serif="http://www.serif.com/" style="fill-rule:evenodd;clip-rule:evenodd;stroke-linejoin:round;stroke-miterlimit:2;">
    <g transform="matrix(1.28237,0,0,1.28237,-271.071,-152.478)">
        <path d="M583.389,405.61C584.522,407.515 586.413,408.848 588.588,409.276C590.764,409.703 593.018,409.184 594.788,407.849C597.52,405.762 600.416,403.872 603.447,402.174C615.013,395.696 628.129,392.263 641.486,392.263C654.842,392.263 667.958,395.696 679.524,402.174C691.356,408.802 701.147,418.369 707.973,429.841C707.973,429.841 769.631,533.432 798.429,581.816C800.225,584.833 803.814,586.278 807.199,585.347C810.583,584.416 812.928,581.338 812.928,577.828C812.928,530.826 812.928,441.853 812.928,441.853C812.928,416.013 833.876,395.065 859.717,395.065C859.717,395.065 912.256,395.065 912.256,395.065C928.992,395.065 944.453,404.003 952.804,418.507C952.804,418.507 952.804,418.507 952.805,418.508C953.958,420.511 956.091,421.749 958.403,421.756C960.715,421.764 962.856,420.54 964.022,418.545C972.051,404.498 987.189,395.065 1004.53,395.065C1004.53,395.065 1054.11,395.065 1054.11,395.065C1079.95,395.065 1100.9,416.013 1100.9,441.853C1100.9,441.853 1100.9,449.173 1100.9,455.193C1100.9,459.5 1104.39,462.991 1108.7,462.991C1121.19,462.991 1144.33,462.991 1144.33,462.991C1154.96,462.991 1164.77,466.54 1172.63,472.518C1175.41,474.628 1179.25,474.628 1182.03,472.517C1189.89,466.54 1199.69,462.991 1210.33,462.991C1210.33,462.991 1256.3,462.991 1256.3,462.991C1260.54,462.991 1264.64,463.553 1268.54,464.607C1269.9,464.987 1271.35,464.987 1272.71,464.608C1276.63,463.548 1280.73,462.991 1284.91,462.991C1284.91,462.991 1334.82,462.991 1334.82,462.991C1344.18,462.991 1353.16,465.788 1360.73,470.817C1363.34,472.551 1366.73,472.551 1369.34,470.817C1376.9,465.788 1385.89,462.991 1395.24,462.991C1395.24,462.991 1445.49,462.991 1445.49,462.991C1446.69,462.991 1447.84,462.514 1448.69,461.666C1449.54,460.817 1450.02,459.667 1450.02,458.467C1450.02,458.262 1450.02,458.142 1450.02,458.142C1450.02,432.301 1470.96,411.353 1496.8,411.353C1496.8,411.353 1542.44,411.353 1542.44,411.353C1568.28,411.353 1589.23,432.301 1589.23,458.142C1589.23,458.142 1589.23,458.331 1589.23,458.632C1589.23,461.096 1591.06,463.178 1593.5,463.502C1616.15,466.733 1633.56,486.223 1633.56,509.78C1633.56,509.78 1633.56,549.981 1633.56,549.981C1633.56,574.906 1614.07,595.279 1589.5,596.691C1589.35,596.7 1589.23,596.825 1589.23,596.977C1589.23,596.979 1589.23,596.98 1589.23,596.982C1589.23,597.09 1589.32,597.179 1589.42,597.185C1614.03,598.558 1633.56,618.948 1633.56,643.899C1633.56,643.899 1633.56,684.448 1633.56,684.448C1633.56,710.288 1612.62,731.236 1586.77,731.236C1586.77,731.236 1559.52,731.236 1559.52,731.236C1534.26,731.236 1512.73,724.595 1495.54,713.095C1492.24,710.861 1487.78,711.486 1485.22,714.542C1476.45,725.011 1463.4,731.236 1449.43,731.236C1449.43,731.236 1400.82,731.236 1400.82,731.236C1389.46,731.236 1378.65,727.114 1370.26,719.877C1367.35,717.373 1363.05,717.374 1360.14,719.877C1351.75,727.115 1340.93,731.236 1329.58,731.236C1329.58,731.236 1280.64,731.236 1280.64,731.236C1277.11,731.236 1273.63,730.838 1270.27,730.073C1269.1,729.8 1267.88,729.8 1266.72,730.073C1263.37,730.834 1259.88,731.236 1256.3,731.236C1256.3,731.236 1210.33,731.236 1210.33,731.236C1205.79,731.236 1201.4,730.59 1197.25,729.385C1195.79,728.946 1194.23,728.949 1192.76,729.393C1182.66,732.387 1171.72,734.009 1160.09,734.009C1136.28,734.009 1115.16,727.46 1098.05,715.687C1094.89,713.495 1090.61,713.93 1087.97,716.713C1079.46,725.667 1067.44,731.236 1054.11,731.236C1054.11,731.236 1001.25,731.236 1001.25,731.236C984.475,731.236 968.987,722.26 960.649,707.709C960.649,707.709 960.649,707.708 960.648,707.707C959.508,705.718 957.393,704.488 955.099,704.48C952.806,704.473 950.683,705.69 949.53,707.672C941.513,721.765 926.349,731.236 908.973,731.236C908.973,731.236 859.717,731.236 859.717,731.236C843.972,731.236 830.044,723.459 821.564,711.537C820.223,709.667 818.12,708.49 815.824,708.327C813.529,708.163 811.28,709.03 809.688,710.692C804.576,715.933 798.696,720.458 792.2,724.096C780.629,730.578 767.51,734.011 754.156,734.008L363.582,734.008C350.221,734.011 337.101,730.578 325.531,724.096C313.697,717.468 303.906,707.899 297.076,696.418C290.084,684.665 286.431,671.325 286.437,657.753C286.444,644.184 290.107,630.85 297.094,619.125L437.289,383.569L437.295,383.559C444.127,372.085 453.918,362.522 465.749,355.898L465.753,355.896C477.32,349.421 490.432,345.991 503.785,345.991C517.137,345.991 530.25,349.421 541.816,355.896L541.82,355.898C553.651,362.522 563.442,372.085 570.275,383.559L570.288,383.582C570.288,383.582 578.119,396.749 583.389,405.61Z" style="fill:url(#_Linear1);"/>
    </g>
    <g transform="matrix(12.2311,0,0,12.2311,152.751,344.456)">
        <path d="M26.83,31.423L44.418,31.423C44.977,31.423 45.526,31.28 46.01,31.009C46.493,30.738 46.895,30.349 47.174,29.879C47.453,29.41 47.6,28.877 47.6,28.336C47.6,27.794 47.453,27.261 47.173,26.792L35.361,6.947C35.082,6.478 34.68,6.088 34.196,5.817C33.713,5.546 33.164,5.404 32.605,5.404C32.047,5.404 31.498,5.546 31.014,5.817C30.531,6.088 30.129,6.478 29.85,6.947L26.83,12.025L20.924,2.095C20.645,1.626 20.243,1.236 19.759,0.966C19.275,0.695 18.727,0.552 18.168,0.552C17.609,0.552 17.061,0.695 16.577,0.966C16.093,1.236 15.691,1.626 15.412,2.095L0.713,26.792C0.433,27.261 0.286,27.794 0.286,28.336C0.286,28.877 0.432,29.41 0.712,29.879C0.991,30.349 1.393,30.738 1.876,31.009C2.36,31.28 2.909,31.423 3.468,31.423L14.508,31.423C18.883,31.423 22.109,29.559 24.329,25.923L29.718,16.87L32.604,12.025L41.268,26.578L29.718,26.578L26.83,31.423ZM14.328,26.573L6.623,26.571L18.173,7.168L23.936,16.87L20.078,23.354C18.603,25.713 16.929,26.573 14.328,26.573Z" style="fill:url(#_Linear2);fill-rule:nonzero;"/>
    </g>
    <path d="M894.565,725.235L831.4,725.235L831.4,414.14L898.775,414.14L985.522,564.799C1005.31,599.463 1021.32,636.795 1021.32,636.795C1021.32,636.795 1017.1,595.909 1017.1,555.465L1017.1,414.14L1080.69,414.14L1080.69,725.235L1012.89,725.235L926.568,574.576C906.356,539.911 890.354,503.025 890.354,503.025C890.354,503.025 894.565,543.467 894.565,583.909L894.565,725.235ZM1281.01,501.246L1339.97,501.246L1339.97,725.235L1281.01,725.235L1281.01,694.125C1269.22,715.458 1245.64,728.791 1216.59,728.791C1169,728.791 1137.84,691.903 1137.84,640.794L1137.84,501.246L1196.37,501.246L1196.37,627.017C1196.37,654.127 1213.22,673.682 1237.22,673.682C1262.91,673.682 1281.01,652.35 1281.01,623.907L1281.01,501.246ZM1511.4,608.797L1587.63,725.235L1525.3,725.235L1479.82,656.35L1433.93,725.235L1371.18,725.235L1447.83,608.353L1376.65,501.246L1440.66,501.246L1479.41,560.354L1518.14,501.246L1582.58,501.246L1511.4,608.797ZM1648.38,501.246L1648.38,435.028L1706.9,435.028L1706.9,501.246L1763.75,501.246L1763.75,552.799L1706.9,552.799L1706.9,641.239C1706.9,663.016 1717.86,673.237 1736.81,673.237L1763.75,673.237L1763.75,725.235L1728.81,725.235C1679.96,725.235 1648.38,695.903 1648.38,643.906L1648.38,552.799L1607.53,552.799L1607.53,501.246L1648.38,501.246Z" style="fill:rgb(20,21,26);"/>
    <defs>
        <linearGradient id="_Linear1" x1="0" y1="0" x2="1" y2="0" gradientUnits="userSpaceOnUse" gradientTransform="matrix(1266.11,233.023,-54.7339,297.391,348.575,415.814)"><stop offset="0" style="stop-color:rgb(245,245,244);stop-opacity:1"/><stop offset="0.23" style="stop-color:rgb(245,245,244);stop-opacity:1"/><stop offset="0.38" style="stop-color:white;stop-opacity:1"/><stop offset="0.74" style="stop-color:rgb(245,245,244);stop-opacity:1"/><stop offset="1" style="stop-color:rgb(245,245,244);stop-opacity:1"/></linearGradient>
        <linearGradient id="_Linear2" x1="0" y1="0" x2="1" y2="0" gradientUnits="userSpaceOnUse" gradientTransform="matrix(36.7186,13.918,-9.08093,23.9573,18.7671,0.92854)"><stop offset="0" style="stop-color:rgb(74,222,128);stop-opacity:1"/><stop offset="0.2" style="stop-color:rgb(74,222,128);stop-opacity:1"/><stop offset="0.4" style="stop-color:rgb(134,239,172);stop-opacity:1"/><stop offset="0.77" style="stop-color:rgb(74,222,128);stop-opacity:1"/><stop offset="1" style="stop-color:rgb(74,222,128);stop-opacity:1"/></linearGradient>
    </defs>
</svg>
